<svg t="1630561027268" class="icon" viewBox="0 0 1024 1024" version="1.1" xmlns="http://www.w3.org/2000/svg" p-id="4177" width="200" height="200"><path d="M1024 146.304V877.653333A146.304 146.304 0 0 1 877.696 1024H146.346667A146.304 146.304 0 0 1 0 877.696V146.346667A146.304 146.304 0 0 1 146.304 0H877.653333A146.304 146.304 0 0 1 1024 146.304zM182.869333 365.653333h146.261334a36.565333 36.565333 0 0 0 0-73.130666H182.869333a36.565333 36.565333 0 1 0 0 73.130666z m402.218667 203.733334L890.026667 264.533333a73.130667 73.130667 0 0 0-103.466667-103.424l-304.896 304.896-37.205333 141.312 140.629333-37.888z m-402.218667 15.701333h146.261334a36.565333 36.565333 0 1 0 0-73.130667H182.869333a36.565333 36.565333 0 1 0 0 73.130667z m0 219.434667h658.261334a36.565333 36.565333 0 0 0 0-73.130667H182.869333a36.565333 36.565333 0 0 0 0 73.130667z" p-id="4178"></path></svg>