<svg t="1630561056906" class="icon" viewBox="0 0 1024 1024" version="1.1" xmlns="http://www.w3.org/2000/svg" p-id="4304" width="200" height="200"><path d="M877.696 0A146.304 146.304 0 0 1 1024 146.304V877.653333A146.304 146.304 0 0 1 877.696 1024H146.346667A146.304 146.304 0 0 1 0 877.696V146.346667A146.304 146.304 0 0 1 146.304 0H877.653333z m-182.826667 804.565333h-219.434666a36.565333 36.565333 0 1 0 0 73.130667h219.434666a36.565333 36.565333 0 0 0 0-73.130667z m146.261334-146.261333h-365.696a36.565333 36.565333 0 0 0 0 73.130667h365.696a36.565333 36.565333 0 1 0 0-73.130667z m-242.773334-567.594667c-74.581333-28.672-162.346667-25.6-222.506666 34.346667C321.28 179.370667 303.317333 268.8 321.92 338.048L103.637333 554.24a103.466667 103.466667 0 0 0 0 146.773333c40.661333 40.533333 106.624 40.533333 147.285334 0L469.333333 484.821333a208.768 208.768 0 0 0 201.088-53.76 207.018667 207.018667 0 0 0 47.018667-221.653333l-76.8 76.373333-7.893333 6.997334c-33.024 25.6-80.768 23.253333-111.104-6.997334a83.626667 83.626667 0 0 1 0-118.613333z" p-id="4305"></path></svg>